# xmcd
#
# Track frame offsets:
#	182
#	14085
#	30385
#	45242
#	58107
#	74680
#	88505
#	101765
#	116145
#	129355
#	141955
#	156745
#
# Disc length: 2320 seconds
#
# Revision: 0
# Processed by: cddbd v1.4PL0 Copyright (c) Steve Scherf et al.
# Submitted via: audiograbber 1.81.01
#
DISCID=ad090e0c
DTITLE=Wess - I Grandi Successi Originali cd1
DYEAR=1900
DGENRE=pop
TTITLE0=Amore mio
TTITLE1=Senza luce (A Whiter Shade Of Pale)
TTITLE2=Tu piangi sul mio cuore
TTITLE3=I miei giorni felici
TTITLE4=Ti ho inventata io
TTITLE5=Bada bambina
TTITLE6=Blus in thè night
TTITLE7=Solitudine
TTITLE8=E stato subito amore
TTITLE9=Un uomo senza la sua donna
TTITLE10=Peccato
TTITLE11=Il primo appuntamento
EXTD=
EXTT0=
EXTT1=
EXTT2=
EXTT3=
EXTT4=
EXTT5=
EXTT6=
EXTT7=
EXTT8=
EXTT9=
EXTT10=
EXTT11=
PLAYORDER=
